<svg xmlns="http://www.w3.org/2000/svg" width="556" height="356" viewBox="0 0 556 356">
  <g id="Screens" transform="translate(-26 -24)">
    <g id="Employer-HD" transform="translate(-748 -262)">
      <g id="Hero" transform="translate(124 216)">
        <g id="Group" transform="translate(650 70)">
          <g id="Rectangle" transform="translate(556 288) rotate(180)">
            <path id="Path_3" data-name="Path 3" d="M36,0H520V278a10,10,0,0,1-10,10H46a10,10,0,0,1-10-10V0Z"/>
            <path id="Path_4" data-name="Path 4" d="M518,2V278a8,8,0,0,1-8,8H46a8,8,0,0,1-8-8h0V2Z" fill="#2a2626" stroke="#373737" stroke-width="4" fill-rule="evenodd"/>
          </g>
          <g id="Rectangle-2" data-name="Rectangle" transform="translate(556) rotate(180)">
            <path id="Path_5" data-name="Path 5" d="M36.593-284H519.439l35.615-57.473a1,1,0,0,0-.323-1.377,1,1,0,0,0-.527-.15H1.8a1,1,0,0,0-1,1,1,1,0,0,0,.15.527L36.593-284Z"/>
            <path id="Path_6" data-name="Path 6" d="M518.326-286l34.082-55H3.594l34.112,55Z" fill="#2a2626" stroke="#373737" stroke-width="4" fill-rule="evenodd"/>
          </g>
          <g id="Rectangle-3" data-name="Rectangle" transform="translate(556 695) rotate(180)">
            <path id="Path_7" data-name="Path 7" d="M12.732,339H543.268A11.026,11.026,0,0,1,554,347.5l.843,3.584a4,4,0,0,1-2.977,4.81,4.044,4.044,0,0,1-.916.106H5.05a4,4,0,0,1-3.894-4.916L2,347.5A11.025,11.025,0,0,1,12.732,339Z"/>
            <path id="Path_8" data-name="Path 8" d="M543.268,341a9.025,9.025,0,0,1,8.785,6.958h0l.843,3.584a2,2,0,0,1-1.488,2.4h0L5.05,354a2,2,0,0,1-2-2h0l.9-4.042A9.025,9.025,0,0,1,12.732,341H543.268Z" fill="#2a2626" stroke="#373737" stroke-width="4" fill-rule="evenodd"/>
          </g>
          <path id="Rectangle-4" data-name="Rectangle" d="M53-296H502l17-31H36Z" transform="translate(555) rotate(180)" fill="#5d5d5d" fill-rule="evenodd"/>
          <line id="Path-11" x2="467" transform="translate(44 304.5)" fill="none" stroke="#2a2626" stroke-width="4"/>
          <line id="Path-11-Copy" x2="477" transform="translate(39 316.5)" fill="none" stroke="#2a2626" stroke-width="4"/>
        </g>
      </g>
    </g>
  </g>
</svg>
