<svg xmlns="http://www.w3.org/2000/svg" width="487" height="608.5" viewBox="0 0 487 608.5">
  <g id="Group_1" data-name="Group 1" transform="translate(-162 -146)">
    <g id="Screens" transform="translate(185.5 165.5)" opacity="0.2">
      <g id="Student-HD" transform="translate(-806 -197)">
        <g id="Hero" transform="translate(124 204)">
          <circle id="Oval-Copy-5" cx="7.5" cy="7.5" r="7.5" transform="translate(709 20) rotate(180)" fill="none" stroke="#45c0ff" stroke-width="23"/>
        </g>
      </g>
    </g>
    <g id="Screens-2" data-name="Screens" transform="translate(473 146)">
      <g id="Student-HD-2" data-name="Student-HD" transform="translate(-1099 -184)">
        <g id="Hero-2" data-name="Hero" transform="translate(124 204)">
          <circle id="Oval-Copy" cx="44" cy="44" r="44" transform="translate(1000 5)" fill="none" stroke="#18009e" stroke-width="50"/>
        </g>
      </g>
    </g>
    <g id="Screens-3" data-name="Screens" transform="translate(162 273)">
      <g id="Student-HD-3" data-name="Student-HD" transform="translate(-787 -312)">
        <g id="Hero-3" data-name="Hero" transform="translate(124 204)">
          <circle id="Oval-Copy-2" cx="110.5" cy="110.5" r="110.5" transform="translate(688 133)" fill="none" stroke="#9df" stroke-width="50"/>
        </g>
      </g>
    </g>
    <g id="Screens-4" data-name="Screens" transform="translate(349 441)">
      <g id="Student-HD-4" data-name="Student-HD" transform="translate(-974 -481)">
        <g id="Hero-4" data-name="Hero" transform="translate(124 204)">
          <circle id="Oval-Copy-3" cx="125" cy="125" r="125" transform="translate(875 302)" fill="none" stroke="#2f64ff" stroke-width="50"/>
        </g>
      </g>
    </g>
    <g id="Group-4" transform="translate(266 165.508)">
      <g id="Rectangle" transform="translate(420 133) rotate(90)">
        <path id="Path_1" data-name="Path 1" d="M-113,133H400a20,20,0,0,1,20,20V400a20,20,0,0,1-20,20H-113a20,20,0,0,1-20-20V153A20,20,0,0,1-113,133Z"/>
        <path id="Path_2" data-name="Path 2" d="M400,135a18,18,0,0,1,18,18h0V400a18,18,0,0,1-18,18H-113a17.944,17.944,0,0,1-12.728-5.272A17.944,17.944,0,0,1-131,400h0V153a17.944,17.944,0,0,1,5.272-12.728A17.944,17.944,0,0,1-113,135H400Z" fill="#2a2626" stroke="#373737" stroke-width="4" fill-rule="evenodd"/>
      </g>
      <circle id="Oval" cx="18.5" cy="18.5" r="18.5" transform="translate(126 500)" fill="#373737"/>
      <path id="Rectangle-2" data-name="Rectangle" d="M98,26h91v7H98Z" fill="#373737" fill-rule="evenodd"/>
    </g>
    <g id="Screens-5" data-name="Screens" transform="translate(184 712)" opacity="0.2">
      <g id="Student-HD-5" data-name="Student-HD" transform="translate(-830 -757)">
        <g id="Hero-5" data-name="Hero" transform="translate(124 204)">
          <circle id="Oval-Copy-7" cx="9.5" cy="9.5" r="9.5" transform="translate(737 584) rotate(180)" fill="none" stroke="#45c0ff" stroke-width="23"/>
        </g>
      </g>
    </g>
  </g>
</svg>
