<?xml version="1.0" encoding="UTF-8"?>
<svg width="159px" height="34px" viewBox="0 0 159 34" version="1.1" xmlns="http://www.w3.org/2000/svg" xmlns:xlink="http://www.w3.org/1999/xlink">
    <title>6D7056E4-A579-4158-B2FA-6A02BCF57A68</title>
    <g id="Screens" stroke="none" stroke-width="1" fill="none" fill-rule="evenodd">
        <g id="Student-HD" transform="translate(-124.000000, -3605.000000)" fill="#FFFFFF" fill-rule="nonzero">
            <g id="Footer-Desktop" transform="translate(0.000000, 3564.000000)">
                <g id="Group" transform="translate(124.000000, 41.000000)">
                    <path d="M0,19.9295238 L5.16252241,19.9295238 C8.17678697,19.9295238 10,21.7681101 10,24.4197477 L10,24.4606408 C10,27.4690908 7.72546574,29.0310473 4.89126198,29.0310473 L2.77963988,29.0310473 L2.77963988,32.9295238 L0,32.9295238 L0,19.9295238 Z M4.98168213,26.483647 C6.37150207,26.483647 7.18372437,25.6297027 7.18372437,24.5159668 L7.18372437,24.478281 C7.18372437,23.1953599 6.31771767,22.5106007 4.92789773,22.5106007 L2.77963988,22.5106007 L2.77963988,26.483647 L4.98168213,26.483647 Z" id="Shape"></path>
                    <path d="M16,19.9295238 L21.8179872,19.9295238 C23.4361884,19.9295238 24.6908637,20.3938955 25.5270521,21.2480506 C26.2336902,21.9698718 26.6184154,22.9940559 26.6184154,24.2195479 L26.6184154,24.256441 C26.6184154,26.3553366 25.5089936,27.6738634 23.8907923,28.2866094 L27,32.9295238 L23.7251249,32.9295238 L20.9975018,28.7702296 L18.7990721,28.7702296 L18.7990721,32.9295238 L16,32.9295238 L16,19.9295238 Z M21.6366167,26.2438554 C23.0004283,26.2438554 23.781656,25.5011815 23.781656,24.4056173 L23.781656,24.3687243 C23.781656,23.1424302 22.9454675,22.5112377 21.5832263,22.5112377 L18.7975018,22.5112377 L18.7975018,26.2438554 L21.6366167,26.2438554 Z" id="Shape"></path>
                    <path d="M51,31.8630721 L52.8299837,29.7336024 C53.5852797,30.6015742 54.3210212,31.1143505 55.2449756,31.1143505 C56.3400326,31.1143505 57.0187398,30.4235506 57.0187398,28.8264483 L57.0187398,19.9295238 L60,19.9295238 L60,28.9635861 C60,30.6007224 59.5469853,31.823038 58.7550244,32.6518277 C57.9402499,33.5036155 56.7547529,33.9295238 55.3207496,33.9295238 C53.2642586,33.9337684 51.9060293,32.9874321 51,31.8630721 Z" id="Path"></path>
                    <polygon id="Path" points="67 19.9295238 76.9060196 19.9295238 76.9060196 22.4749727 69.8704529 22.4749727 69.8704529 25.1126772 76.0618164 25.1126772 76.0618164 27.6573239 69.8704529 27.6573239 69.8704529 30.3848771 77 30.3848771 77 32.9295238 67 32.9295238"></polygon>
                    <path d="M83,25.9683593 L83,25.9299413 C83,22.0814655 85.7860151,18.9295238 89.7801324,18.9295238 C92.2316331,18.9295238 93.6996457,19.7797296 94.9069457,21.0174555 L93.0867705,23.2031025 C92.0832275,22.2551815 91.0620362,21.6747364 89.7616819,21.6747364 C87.5692894,21.6747364 85.9913764,23.5705785 85.9913764,25.8915234 L85.9913764,25.9299413 C85.9913764,28.2508862 87.5331907,30.184311 89.7616819,30.184311 C91.2473427,30.184311 92.1578314,29.565448 93.1798249,28.5974829 L95,30.5125339 C93.6627448,32.0016468 92.1762818,32.9295238 89.6686276,32.9295238 C85.8413664,32.9303588 83,29.855253 83,25.9683593 Z" id="Path"></path>
                    <polygon id="Path" points="104.039312 22.5665773 100 22.5665773 100 19.9295238 111 19.9295238 111 22.5665773 106.959869 22.5665773 106.959869 32.9295238 104.039312 32.9295238"></polygon>
                    <path d="M125.355335,29.2360628 C125.355335,27.6892073 124.160806,27.2052423 121.079039,26.5288574 C117.437102,25.7358545 116.410958,24.1506817 116.410958,22.4097404 C116.410958,20.3797529 118.184829,18.9295238 121.154062,18.9295238 C124.27334,18.9295238 126.103895,20.3214438 126.626554,22.8737137 L124.908533,22.8737137 C124.553425,21.3076996 123.302213,20.4763793 121.210746,20.4763793 C119.081767,20.4763793 118.053956,21.2693822 118.053956,22.4097404 C118.053956,23.4734638 119.081767,24.4405609 121.546681,25.0203193 C125.33783,25.8907899 127,26.7221102 127,29.1394363 C127,31.3635096 125.076084,32.9295238 121.602531,32.9295238 C119.548575,32.9295238 117.66217,32.0207358 116,29.9124476 L116.877766,29.1394363 C118.294862,30.5705067 119.697787,31.3826683 121.640042,31.3826683 C124.010761,31.3851673 125.355335,30.4572206 125.355335,29.2360628 Z" id="Path"></path>
                    <polygon id="Path" points="134 19.9295238 142.807729 19.9295238 142.807729 21.3783238 135.505341 21.3783238 135.505341 25.5015238 142.07069 25.5015238 142.07069 26.9495238 135.505341 26.9495238 135.505341 31.4815238 143 31.4815238 143 32.9295238 134 32.9295238"></polygon>
                    <polygon id="Path" points="152.732136 21.3783238 148 21.3783238 148 19.9295238 159 19.9295238 159 21.3783238 154.267864 21.3783238 154.267864 32.9295238 152.732136 32.9295238"></polygon>
                    <g transform="translate(28.000000, 0.929524)">
                        <polygon id="Rectangle" transform="translate(9.889520, 16.231822) rotate(-11.530000) translate(-9.889520, -16.231822) " points="8.63763991 13.2765167 11.1333687 13.2798886 11.1414007 19.1871271 8.64567183 19.1837552"></polygon>
                        <polygon id="Rectangle" transform="translate(16.253635, 8.827879) rotate(-76.450000) translate(-16.253635, -8.827879) " points="15.0090312 6.19717686 17.4899766 6.20109961 17.4982384 11.4585807 15.017293 11.454658"></polygon>
                        <polygon id="Rectangle" transform="translate(18.491570, 16.230867) rotate(-52.450000) translate(-18.491570, -16.230867) " points="14.8291976 14.9732113 22.145621 14.9976982 22.1539426 17.4885235 14.8375191 17.4640366"></polygon>
                        <path d="M23.1589167,6.9671999 C24.4368434,6.96687641 25.5891185,7.73112291 26.0783857,8.90353803 C26.5676529,10.0759531 26.2975479,11.425622 25.3940324,12.3231352 C24.4905169,13.2206484 23.1315442,13.4892348 21.9508626,13.0036409 C20.770181,12.5180469 20.0003333,11.3739135 20.0003333,10.1048 C20.0021086,8.37299443 21.4150852,6.96940466 23.1589167,6.9671999 M23.1589167,4.4872 C20.0353015,4.4872 17.5031111,7.00192702 17.5031111,10.104 C17.5031111,13.206073 20.0353015,15.7208 23.1589167,15.7208 C26.2825318,15.7208 28.8147222,13.206073 28.8147222,10.104 C28.8142774,7.00223944 26.2822173,4.48799997 23.1589167,4.488 L23.1589167,4.4872 Z" id="Shape"></path>
                        <path d="M7.61411111,2.8344 C9.51695457,2.8344 11.2324167,3.97278286 11.9605281,5.71868783 C12.6886395,7.4645928 12.2859995,9.47416604 10.9403708,10.8102857 C9.59474205,12.1464054 7.57114451,12.5459244 5.81323992,11.8225355 C4.05533532,11.0991466 2.90934084,9.39532038 2.9096666,7.5056 C2.91277468,4.92673478 5.01733661,2.83704495 7.61411111,2.8344 M7.61411111,-1.77635684e-15 C4.55682541,-0.000323568071 1.80041372,1.82843348 0.630290627,4.63345551 C-0.539832471,7.43847755 0.106791887,10.667308 2.26861935,12.8142263 C4.43044681,14.9611446 7.68169969,15.6033095 10.506201,14.4412562 C13.3307024,13.2792029 15.1721591,10.541801 15.1718333,7.5056 C15.1713885,3.36055457 11.7879416,0.000441737674 7.61411111,-1.77635684e-15 L7.61411111,-1.77635684e-15 Z" id="Shape"></path>
                    </g>
                    <path d="M39.4999999,20.3955888 C41.5361078,20.3952723 43.3719034,21.6215504 44.1513075,23.5025779 C44.9307116,25.3836054 44.5002227,27.5489189 43.060589,28.9887765 C41.6209553,30.4286341 39.4557087,30.8594597 37.57456,30.0803481 C35.6934114,29.3012365 34.4668478,27.4656317 34.4668478,25.4295238 C34.4698668,22.6509153 36.721392,20.39904 39.4999999,20.3955888 M39.5,16.9295238 C34.8055796,16.9295238 31,20.7351035 31,25.4295238 C31,30.1239442 34.8055796,33.9295238 39.5,33.9295238 C44.1944203,33.9295238 48,30.1239442 48,25.4295238 C48.0002075,23.17512 47.1047411,21.0129911 45.5106368,19.4188869 C43.9165326,17.8247827 41.7544037,16.9293162 39.5,16.9295238 Z" id="Shape"></path>
                </g>
            </g>
        </g>
    </g>
</svg>